<?xml version="1.0" encoding="iso-8859-1"?>
<!-- Generator: Adobe Illustrator 19.0.0, SVG Export Plug-In . SVG Version: 6.00 Build 0)  -->
<svg xmlns="http://www.w3.org/2000/svg" xmlns:xlink="http://www.w3.org/1999/xlink" version="1.1" id="Layer_1" x="0px" y="0px" viewBox="0 0 497.501 497.501" style="enable-background:new 0 0 497.501 497.501;" xml:space="preserve" width="512" height="512">
<g>
	<path style="fill:#EBF6FF;" d="M184.37,306.04c-84.375,0-153.02-68.645-153.02-153.02S99.995,0,184.37,0   c84.376,0,153.021,68.645,153.021,153.02S268.746,306.04,184.37,306.04z M184.37,15c-76.104,0-138.02,61.916-138.02,138.02   s61.915,138.02,138.02,138.02s138.021-61.916,138.021-138.02S260.475,15,184.37,15z"/>
	<path style="fill:#A0BFDB;" d="M184.37,254.84c-56.144,0-101.82-45.676-101.82-101.82c0-56.144,45.677-101.82,101.82-101.82   s101.82,45.676,101.82,101.82C286.19,209.164,240.514,254.84,184.37,254.84z M184.37,66.2c-47.873,0-86.82,38.947-86.82,86.82   c0,47.873,38.947,86.82,86.82,86.82s86.82-38.947,86.82-86.82C271.19,105.147,232.243,66.2,184.37,66.2z"/>
	<path style="fill:#737B87;" d="M456.31,329.1L205.715,153.94c-13.836-9.671-32.67,1.203-31.213,18.021l26.396,304.601   c2.016,23.26,33.47,28.939,43.492,7.852l52.514-110.497c4.079-8.583,13.036-13.754,22.509-12.995l121.95,9.77   C464.636,372.555,475.446,342.476,456.31,329.1z"/>
	<path style="fill:#37414F;" d="M306.14,363.92c-3.94,2.27-7.2,5.7-9.24,10l-52.51,110.49c-10.02,21.09-41.48,15.41-43.49-7.85   l-26.4-304.6c-0.73-8.41,3.62-15.33,9.87-18.94L306.14,363.92z"/>
</g>















</svg>
